g Cube
v 0.0202 -0.0009999996 -0.0102
v 0.0202 0.0009999996 -0.0102
v 0.019 0.0009999996 -0.005
v 0.019 -0.0009999996 -0.005
v 0.019 0.0009999996 -0.005
v 0.017 0.0009999996 -0.002
v 0.017 -0.0009999996 -0.002
v 0.019 -0.0009999996 -0.005
v 0.014 0.0009999996 1.490116E-10
v 0.024 0.0009999996 1.490116E-10
v 0.024 -0.0009999996 1.490116E-10
v 0.014 -0.0009999996 1.490116E-10
v 0.017 0.0009999996 -0.002
v 0.014 0.0009999996 1.490116E-10
v 0.014 -0.0009999996 1.490116E-10
v 0.017 -0.0009999996 -0.002
v 0.0202 -0.0009999996 -0.0102
v 0.0212 -0.0009999996 -0.0112
v 0.0212 0.0009999996 -0.0112
v 0.0202 0.0009999996 -0.0102
v 0.0242 -0.0009999996 -0.0112
v 0.0242 0.0009999996 -0.0112
v 0.0212 0.0009999996 -0.0112
v 0.0212 -0.0009999996 -0.0112
v 0.024 0.0009999996 1.490116E-10
v 0.0252 0.0009999996 -0.0102
v 0.0252 -0.0009999996 -0.0102
v 0.024 -0.0009999996 1.490116E-10
v 0.0252 0.0009999996 -0.0102
v 0.0242 0.0009999996 -0.0112
v 0.0242 -0.0009999996 -0.0112
v 0.0252 -0.0009999996 -0.0102
v 0.0252 -0.0009999996 -0.0102
v 0.0242 -0.0009999996 -0.0112
v 0.0212 -0.0009999996 -0.0112
v 0.0202 -0.0009999996 -0.0102
v 0.024 -0.0009999996 1.490116E-10
v 0.019 -0.0009999996 -0.005
v 0.017 -0.0009999996 -0.002
v 0.014 -0.0009999996 1.490116E-10
v 0.0202 0.0009999996 -0.0102
v 0.0212 0.0009999996 -0.0112
v 0.0242 0.0009999996 -0.0112
v 0.0252 0.0009999996 -0.0102
v 0.019 0.0009999996 -0.005
v 0.024 0.0009999996 1.490116E-10
v 0.017 0.0009999996 -0.002
v 0.014 0.0009999996 1.490116E-10
v -0.034 0.002 0.004
v 0.006000002 0.001414214 0.002585787
v 0.006000002 0.002000001 0.004
v -0.034 0.001414214 0.002585786
v -0.028 -7.45058E-10 0.004
v 0.006000002 1.81295E-10 0.002
v -0.034 -3.561402E-10 0.001999999
v -0.028 -7.45058E-10 0.004
v 0.006000002 -0.001414214 0.002585787
v -0.034 -0.001414214 0.002585786
v -0.028 -7.45058E-10 0.004
v 0.006000002 -0.002 0.004000001
v -0.034 -0.002000001 0.004
v -0.028 -7.45058E-10 0.004
v 0.006000002 -0.001414214 0.005414214
v -0.034 -0.001414214 0.005414214
v -0.028 -7.45058E-10 0.004
v 0.006000002 2.925674E-10 0.006000001
v -0.034 -2.448675E-10 0.006
v -0.028 -7.45058E-10 0.004
v 0.006000002 0.001414214 0.005414214
v -0.034 0.001414214 0.005414214
v -0.028 -7.45058E-10 0.004
v 0.006000002 0.002000001 0.004
v -0.034 0.002 0.004
v -0.028 -7.45058E-10 0.004
v 0.006000002 -0.001414214 0.002585787
v 0.006000002 -0.002 0.004000001
v 0.006000002 -0.001414214 0.005414214
v 0.006000002 1.81295E-10 0.002
v 0.006000002 2.925674E-10 0.006000001
v 0.006000002 0.001414214 0.002585787
v 0.006000002 0.001414214 0.005414214
v 0.006000002 0.002000001 0.004
v 0.006 -0.002000001 0.001
v 0.006 -0.003 0.0022
v 0.0234 -0.003 0
v 0.02200001 -0.001999999 -0.0009999999
v 0.02200001 0.002 -0.0009999999
v 0.006 0.001999999 0.001
v 0.0234 0.003 0
v 0.006 0.003 0.0022
v 0.0324 0.003000002 0.0007999998
v 0.0254 0.004000001 -0.0174
v 0.031 0.003 0.004
v 0.006 0.003 0.005599999
v 0.028 0.003 0.005599999
v 0.0326 0.004000001 -0.0178
v 0.0262 0.004000001 -0.0184
v 0.0316 0.004000001 -0.0186
v 0.006 -0.002000001 0.001
v 0.006 -0.003 0.005599999
v 0.006 -0.003 0.0022
v 0.006 -0.001999999 0.007
v 0.006 0.002 0.007
v 0.006 0.001999999 0.001
v 0.006 0.003 0.005599999
v 0.006 0.003 0.0022
v 0.02200001 0.002 -0.0009999999
v 0.0254 0.004000001 -0.0174
v 0.0234 0.003 0
v 0.02400001 0.002 -0.018
v 0.0262 0.004000001 -0.0184
v 0.02200001 -0.001999999 -0.0009999999
v 0.026 0.002 -0.02
v 0.0316 0.004000001 -0.0186
v 0.02400001 -0.001999999 -0.018
v 0.032 0.002 -0.02
v 0.0326 0.004000001 -0.0178
v 0.0254 -0.003999999 -0.0174
v 0.0234 -0.003 0
v 0.0324 -0.003 0.0007999998
v 0.006 -0.003 0.0022
v 0.026 -0.001999999 -0.02
v 0.034 0.002 -0.018
v 0.0324 0.003000002 0.0007999998
v 0.0262 -0.003999999 -0.0184
v 0.032 -0.001999999 -0.02
v 0.0326 -0.003999999 -0.0178
v 0.0316 -0.003999999 -0.0186
v 0.034 -0.001999999 -0.018
v 0.034 0.002 0.0009999996
v 0.032 0.002 0.004999999
v 0.031 0.003 0.004
v 0.034 -0.001999999 0.0009999999
v 0.028 0.002 0.007
v 0.028 0.003 0.005599999
v 0.032 -0.001999999 0.005
v 0.006 0.002 0.007
v 0.006 0.003 0.005599999
v 0.006 -0.001999999 0.007
v 0.031 -0.003 0.004
v 0.006 -0.003 0.005599999
v 0.028 -0.001999999 0.007
v 0.028 -0.003 0.005599999
vt 0.375 0
vt 0.375 0.25
vt 0.625 0.25
vt 0.625 0
vt 0.625 0.25
vt 0.625 0.25
vt 0.625 0
vt 0.625 0
vt 0.625 0.25
vt 0.625 0.25
vt 0.625 0
vt 0.625 0
vt 0.625 0.25
vt 0.625 0.25
vt 0.625 0
vt 0.625 0
vt 0.375 0
vt 0.375 0
vt 0.375 0.25
vt 0.375 0.25
vt 0.625 0
vt 0.625 0.25
vt 0.375 0.25
vt 0.375 0
vt 0.625 0.25
vt 0.625 0.25
vt 0.625 0
vt 0.625 0
vt 0.625 0.25
vt 0.625 0.25
vt 0.625 0
vt 0.625 0
vt 0.625 0
vt 0.625 0
vt 0.375 0
vt 0.375 0
vt 0.625 0
vt 0.625 0
vt 0.625 0
vt 0.625 0
vt 0.375 0.25
vt 0.375 0.25
vt 0.625 0.25
vt 0.625 0.25
vt 0.625 0.25
vt 0.625 0.25
vt 0.625 0.25
vt 0.625 0.25
vt 1 0.5
vt 0.875 1
vt 1 1
vt 0.875 0.5
vt 0 0
vt 0.75 1
vt 0.75 0.5
vt 0 0
vt 0.625 1
vt 0.625 0.5
vt 0 0
vt 0.5 1
vt 0.5 0.5
vt 0 0
vt 0.375 1
vt 0.375 0.5
vt 0 0
vt 0.25 1
vt 0.25 0.5
vt 0 0
vt 0.125 1
vt 0.125 0.5
vt 0 0
vt 0 1
vt 0 0.5
vt 0 0
vt 0.4196777 0.08032227
vt 0.25 0.01000214
vt 0.08032227 0.08032227
vt 0.4899902 0.25
vt 0.01000214 0.25
vt 0.4196777 0.4196777
vt 0.08032227 0.4196777
vt 0.25 0.4899902
vt 0 0
vt 0 0
vt 0 0
vt 0 0
vt 0 0
vt 0 0
vt 0 0
vt 0 0
vt 0 0
vt 0 0
vt 0 0
vt 0 0
vt 0 0
vt 0 0
vt 0 0
vt 0 0
vt 0 0
vt 0 0
vt 0 0
vt 0 0
vt 0 0
vt 0 0
vt 0 0
vt 0 0
vt 0 0
vt 0 0
vt 0 0
vt 0 0
vt 0 0
vt 0 0
vt 0 0
vt 0 0
vt 0 0
vt 0 0
vt 0 0
vt 0 0
vt 0 0
vt 0 0
vt 0 0
vt 0 0
vt 0 0
vt 0 0
vt 0 0
vt 0 0
vt 0 0
vt 0 0
vt 0 0
vt 0 0
vt 0 0
vt 0 0
vt 0 0
vt 0 0
vt 0 0
vt 0 0
vt 0 0
vt 0 0
vt 0 0
vt 0 0
vt 0 0
vt 0 0
vt 0 0
vn -0.9746094 0 -0.2248535
vn -0.9746094 0 -0.2248535
vn -0.9746094 0 -0.2248535
vn -0.9746094 0 -0.2248535
vn -0.8320313 0 -0.5546875
vn -0.8320313 0 -0.5546875
vn -0.8320313 0 -0.5546875
vn -0.8320313 0 -0.5546875
vn 0 0 1
vn 0 0 1
vn 0 0 1
vn 0 0 1
vn -0.5546875 0 -0.8320313
vn -0.5546875 0 -0.8320313
vn -0.5546875 0 -0.8320313
vn -0.5546875 0 -0.8320313
vn -0.7070313 0 -0.7070313
vn -0.7070313 0 -0.7070313
vn -0.7070313 0 -0.7070313
vn -0.7070313 0 -0.7070313
vn 0 0 -1
vn 0 0 -1
vn 0 0 -1
vn 0 0 -1
vn 0.9931641 0 0.1168213
vn 0.9931641 0 0.1168213
vn 0.9931641 0 0.1168213
vn 0.9931641 0 0.1168213
vn 0.7070313 0 -0.7070313
vn 0.7070313 0 -0.7070313
vn 0.7070313 0 -0.7070313
vn 0.7070313 0 -0.7070313
vn 0 -1 0
vn 0 -1 0
vn 0 -1 0
vn 0 -1 0
vn 0 -1 0
vn 0 -1 0
vn 0 -1 0
vn 0 -1 0
vn 0 1 0
vn 0 1 0
vn 0 1 0
vn 0 1 0
vn 0 1 0
vn 0 1 0
vn 0 1 0
vn 0 1 0
vn -0.9277344 0.3728027 1.788139E-07
vn 0 0.7070313 -0.7070313
vn 0 1 0
vn -0.9277344 0.2636719 -0.2636719
vn -1 1.788139E-06 0
vn 0 0 -1
vn -0.9277344 -1.192093E-07 -0.3728027
vn -1 1.788139E-06 0
vn 0 -0.7070313 -0.7070313
vn -0.9277344 -0.2636719 -0.2636719
vn -1 1.788139E-06 0
vn 0 -1 0
vn -0.9277344 -0.3728027 0
vn -1 1.788139E-06 0
vn 0 -0.7070313 0.7070313
vn -0.9277344 -0.2636719 0.2636719
vn -1 1.788139E-06 0
vn 0 -1.788139E-07 1
vn -0.9277344 2.980232E-07 0.3728027
vn -1 1.788139E-06 0
vn 0 0.7070313 0.7070313
vn -0.9277344 0.2636719 0.2636719
vn -1 1.788139E-06 0
vn 0 1 0
vn -0.9277344 0.3728027 1.788139E-07
vn -1 1.788139E-06 0
vn 1 0 0
vn 1 0 0
vn 1 0 0
vn 1 0 0
vn 1 0 0
vn 1 0 0
vn 1 0 0
vn 1 0 0
vn -0.1121216 -0.4326172 -0.8945313
vn -0.08068848 -0.7626953 -0.6420898
vn -0.08068848 -0.7626953 -0.6420898
vn -0.1081543 -0.4941406 -0.862793
vn -0.1081543 0.4941406 -0.862793
vn -0.1121216 0.4326172 -0.8945313
vn -0.02862549 0.9790039 -0.2020264
vn -0.0406189 0.9521484 -0.3024902
vn -0.0007405281 0.9995117 0.02999878
vn -0.0007405281 0.9995117 0.02999878
vn -0.0007405281 0.9995117 0.02999878
vn -0.0007405281 0.9995117 0.02999878
vn -0.0007405281 0.9995117 0.02999878
vn -0.0007405281 0.9995117 0.02999878
vn -0.0007405281 0.9995117 0.02999878
vn -0.0007405281 0.9995117 0.02999878
vn -1 0 0
vn -1 -1.788139E-07 0
vn -1 -1.788139E-07 0
vn -1 0 0
vn -1 0 0
vn -1 0 0
vn -1 0 0
vn -1 0 0
vn -0.9018555 0.4221191 -0.09320068
vn -0.6850586 0.6499023 -0.3295898
vn -0.7128906 0.6987305 -0.06256104
vn -0.8525391 0.3273926 -0.4077148
vn -0.3623047 0.6064453 -0.7080078
vn -0.9018555 -0.4221191 -0.09320068
vn -0.3591309 0.3010254 -0.8833008
vn 0.3049316 0.5859375 -0.7504883
vn -0.8525391 -0.3273926 -0.4077148
vn 0.3547363 0.2897949 -0.8891602
vn 0.6811523 0.6396484 -0.3566895
vn -0.4245605 -0.8852539 -0.1895752
vn -0.3029785 -0.953125 -0.00687027
vn 0.3649902 -0.9262695 0.09631348
vn -0.0007405281 -0.9995117 0.02999878
vn -0.3591309 -0.3010254 -0.8833008
vn 0.8725586 0.3293457 -0.361084
vn 0.6166992 0.7749023 0.1390381
vn -0.2441406 -0.8520508 -0.4631348
vn 0.3547363 -0.2897949 -0.8891602
vn 0.4519043 -0.8637695 -0.2235107
vn 0.1994629 -0.8554688 -0.4777832
vn 0.8725586 -0.3293457 -0.361084
vn 0.8945313 0.3994141 0.2008057
vn 0.6401367 0.4287109 0.6376953
vn 0.4082031 0.8212891 0.3986816
vn 0.8945313 -0.3994141 0.2008057
vn 0.2009277 0.4313965 0.8793945
vn 0.1567383 0.8095703 0.565918
vn 0.6401367 -0.4287109 0.6376953
vn 0 0.4575195 0.8891602
vn 0 0.8139648 0.5810547
vn 0 -0.4575195 0.8891602
vn 0.2524414 -0.9321289 0.2597656
vn -0.0003869534 -0.9477539 0.3193359
vn 0.2009277 -0.4313965 0.8793945
vn 0.09295654 -0.9321289 0.3500977
g Cube_0
f 3/3/3 2/2/2 1/1/1
f 4/4/4 3/3/3 1/1/1
f 7/7/7 6/6/6 5/5/5
f 8/8/8 7/7/7 5/5/5
f 11/11/11 10/10/10 9/9/9
f 12/12/12 11/11/11 9/9/9
f 15/15/15 14/14/14 13/13/13
f 16/16/16 15/15/15 13/13/13
f 19/19/19 18/18/18 17/17/17
f 20/20/20 19/19/19 17/17/17
f 23/23/23 22/22/22 21/21/21
f 24/24/24 23/23/23 21/21/21
f 27/27/27 26/26/26 25/25/25
f 28/28/28 27/27/27 25/25/25
f 31/31/31 30/30/30 29/29/29
f 32/32/32 31/31/31 29/29/29
f 35/35/35 34/34/34 33/33/33
f 33/33/33 36/36/36 35/35/35
f 33/33/33 37/37/37 36/36/36
f 37/37/37 38/38/38 36/36/36
f 37/37/37 39/39/39 38/38/38
f 37/37/37 40/40/40 39/39/39
f 43/43/43 42/42/42 41/41/41
f 41/41/41 44/44/44 43/43/43
f 41/41/41 45/45/45 44/44/44
f 45/45/45 46/46/46 44/44/44
f 45/45/45 47/47/47 46/46/46
f 47/47/47 48/48/48 46/46/46
f 51/51/51 50/50/50 49/49/49
f 50/50/50 52/52/52 49/49/49
f 52/52/52 53/53/53 49/49/49
f 50/50/50 54/54/54 52/52/52
f 54/54/54 55/55/55 52/52/52
f 55/55/55 56/56/56 52/52/52
f 54/54/54 57/57/57 55/55/55
f 57/57/57 58/58/58 55/55/55
f 58/58/58 59/59/59 55/55/55
f 57/57/57 60/60/60 58/58/58
f 60/60/60 61/61/61 58/58/58
f 62/62/62 58/58/58 61/61/61
f 60/60/60 63/63/63 61/61/61
f 63/63/63 64/64/64 61/61/61
f 61/61/61 64/64/64 65/65/65
f 63/63/63 66/66/66 64/64/64
f 66/66/66 67/67/67 64/64/64
f 68/68/68 64/64/64 67/67/67
f 66/66/66 69/69/69 67/67/67
f 69/69/69 70/70/70 67/67/67
f 67/67/67 70/70/70 71/71/71
f 69/69/69 72/72/72 70/70/70
f 72/72/72 73/73/73 70/70/70
f 74/74/74 70/70/70 73/73/73
f 77/77/77 76/76/76 75/75/75
f 75/75/75 78/78/78 77/77/77
f 78/78/78 79/79/79 77/77/77
f 78/78/78 80/80/80 79/79/79
f 80/80/80 81/81/81 79/79/79
f 80/80/80 82/82/82 81/81/81
g Cube_1
f 85/85/85 84/84/84 83/83/83
f 86/86/86 85/85/85 83/83/83
f 87/87/87 86/86/86 83/83/83
f 88/88/88 87/87/87 83/83/83
f 89/89/89 87/87/87 88/88/88
f 90/90/90 89/89/89 88/88/88
f 89/89/89 90/90/90 91/91/91
f 92/92/92 89/89/89 91/91/91
f 90/90/90 93/93/93 91/91/91
f 90/90/90 94/94/94 93/93/93
f 94/94/94 95/95/95 93/93/93
f 92/92/92 91/91/91 96/96/96
f 97/97/97 92/92/92 96/96/96
f 96/96/96 98/98/98 97/97/97
f 101/101/101 100/100/100 99/99/99
f 100/100/100 102/102/102 99/99/99
f 102/102/102 103/103/103 99/99/99
f 103/103/103 104/104/104 99/99/99
f 103/103/103 105/105/105 104/104/104
f 105/105/105 106/106/106 104/104/104
f 109/109/109 108/108/108 107/107/107
f 108/108/108 110/110/110 107/107/107
f 108/108/108 111/111/111 110/110/110
f 112/112/112 107/107/107 110/110/110
f 111/111/111 113/113/113 110/110/110
f 111/111/111 114/114/114 113/113/113
f 115/115/115 112/112/112 110/110/110
f 115/115/115 110/110/110 113/113/113
f 114/114/114 116/116/116 113/113/113
f 114/114/114 117/117/117 116/116/116
f 115/115/115 118/118/118 112/112/112
f 118/118/118 119/119/119 112/112/112
f 120/120/120 119/119/119 118/118/118
f 120/120/120 121/121/121 119/119/119
f 122/122/122 115/115/115 113/113/113
f 122/122/122 113/113/113 116/116/116
f 117/117/117 123/123/123 116/116/116
f 117/117/117 124/124/124 123/123/123
f 125/125/125 118/118/118 115/115/115
f 122/122/122 125/125/125 115/115/115
f 126/126/126 122/122/122 116/116/116
f 126/126/126 116/116/116 123/123/123
f 127/127/127 118/118/118 125/125/125
f 127/127/127 120/120/120 118/118/118
f 128/128/128 125/125/125 122/122/122
f 126/126/126 128/128/128 122/122/122
f 125/125/125 128/128/128 127/127/127
f 127/127/127 128/128/128 126/126/126
f 129/129/129 127/127/127 126/126/126
f 129/129/129 126/126/126 123/123/123
f 120/120/120 127/127/127 129/129/129
f 124/124/124 130/130/130 123/123/123
f 129/129/129 123/123/123 130/130/130
f 130/130/130 124/124/124 131/131/131
f 124/124/124 132/132/132 131/131/131
f 133/133/133 129/129/129 130/130/130
f 133/133/133 120/120/120 129/129/129
f 133/133/133 130/130/130 131/131/131
f 131/131/131 132/132/132 134/134/134
f 132/132/132 135/135/135 134/134/134
f 136/136/136 133/133/133 131/131/131
f 120/120/120 133/133/133 136/136/136
f 136/136/136 131/131/131 134/134/134
f 134/134/134 135/135/135 137/137/137
f 135/135/135 138/138/138 137/137/137
f 134/134/134 137/137/137 139/139/139
f 140/140/140 120/120/120 136/136/136
f 120/120/120 140/140/140 121/121/121
f 140/140/140 141/141/141 121/121/121
f 142/142/142 136/136/136 134/134/134
f 142/142/142 134/134/134 139/139/139
f 140/140/140 136/136/136 142/142/142
f 141/141/141 143/143/143 139/139/139
f 143/143/143 142/142/142 139/139/139
f 143/143/143 140/140/140 142/142/142
f 140/140/140 143/143/143 141/141/141
