g Circle
v 0.009807852 -0.001950904 0
v 0.01 1.192488E-10 0
v 0.009807852 0.001950904 0
v 0.009238794 -0.003826836 0
v 0.009238794 0.003826836 0
v 0.008314694 -0.005555704 0
v 0.008314697 0.005555701 0
v 0.007071069 0.007071067 0
v 0.007071067 -0.007071068 0
v 0.005555703 0.008314696 0
v 0.005555703 -0.008314695 0
v 0.003826834 -0.009238794 0
v 0.003826834 0.009238795 0
v 0.001950902 -0.009807853 0
v 0.001950902 0.009807853 0
v 8.742277E-10 -0.01 0
v 0 0.01 0
v -0.001950903 -0.009807853 0
v -0.001950903 0.009807852 0
v -0.003826835 -0.009238794 0
v -0.003826834 0.009238794 0
v -0.005555702 0.008314696 0
v -0.005555702 -0.008314696 0
v -0.007071068 -0.007071068 0
v -0.007071068 0.007071068 0
v -0.008314696 -0.005555702 0
v -0.008314696 0.005555702 0
v -0.009238794 0.003826834 0
v -0.009238795 -0.003826834 0
v -0.009807852 0.001950903 0
v -0.009807852 -0.001950903 0
v -0.01 -4.371139E-10 0
v -0.00636396 -0.00636396 0.004
v -0.007483227 -0.005000132 0.004
v -0.007483227 -0.005000132 0.002
v -0.00636396 -0.00636396 0.002
v -0.008314916 -0.00344415 0.002
v -0.005000132 -0.007483227 0.004
v -0.008314916 -0.00344415 0.004
v -0.005000132 -0.007483227 0.002
v -0.008827067 -0.001755813 0.002
v -0.003444151 -0.008314915 0.004
v -0.008827067 -0.001755813 0.004
v -0.003444151 -0.008314915 0.002
v -0.009 -4.120289E-10 0.002
v -0.001755813 -0.008827067 0.004
v -0.009 -4.120289E-10 0.004
v -0.001755813 -0.008827067 0.002
v -0.008827067 0.001755813 0.002
v 7.728351E-10 -0.009 0.004
v -0.008827067 0.001755813 0.004
v 7.728351E-10 -0.009 0.002
v -0.008314915 0.003444151 0.002
v 0.001755812 -0.008827067 0.004
v -0.008314915 0.003444151 0.004
v 0.001755812 -0.008827067 0.002
v -0.007483226 0.005000132 0.002
v 0.003444151 -0.008314915 0.004
v -0.007483226 0.005000132 0.004
v 0.003444151 -0.008314915 0.002
v -0.00636396 0.00636396 0.002
v 0.005000132 -0.007483225 0.004
v -0.00636396 0.00636396 0.004
v 0.005000132 -0.007483225 0.002
v -0.005000132 0.007483226 0.002
v 0.00636396 -0.006363961 0.004
v -0.005000132 0.007483226 0.004
v 0.00636396 -0.006363961 0.002
v -0.003444151 0.008314915 0.002
v 0.007483225 -0.005000134 0.004
v -0.003444151 0.008314915 0.004
v 0.007483225 -0.005000134 0.002
v -0.001755813 0.008827067 0.002
v 0.008314915 -0.003444152 0.004
v -0.001755813 0.008827067 0.004
v 0.008314915 -0.003444152 0.002
v -1.396984E-11 0.009 0.002
v 0.008827067 -0.001755813 0.004
v -1.396984E-11 0.009 0.004
v 0.008827067 -0.001755813 0.002
v 0.001755812 0.008827067 0.002
v 0.009 8.869747E-11 0.004
v 0.001755812 0.008827067 0.004
v 0.009 8.869747E-11 0.002
v 0.003444151 0.008314916 0.002
v 0.008827067 0.001755814 0.004
v 0.003444151 0.008314916 0.004
v 0.008827067 0.001755814 0.002
v 0.005000132 0.007483226 0.002
v 0.008314914 0.003444152 0.004
v 0.005000132 0.007483226 0.004
v 0.008314914 0.003444152 0.002
v 0.006363961 0.00636396 0.002
v 0.007483227 0.00500013 0.004
v 0.006363961 0.00636396 0.004
v 0.007483227 0.00500013 0.002
v -0.009807852 -0.001950903 0.004
v -0.01 -4.371139E-10 0.004
v -0.009 -4.120289E-10 0.004
v -0.008827067 -0.001755813 0.004
v -0.008827067 0.001755813 0.004
v -0.009238795 -0.003826834 0.004
v -0.009807852 0.001950903 0.004
v -0.008314916 -0.00344415 0.004
v -0.008314915 0.003444151 0.004
v -0.008314696 -0.005555702 0.004
v -0.009238794 0.003826834 0.004
v -0.007483227 -0.005000132 0.004
v -0.007483226 0.005000132 0.004
v -0.007071068 -0.007071068 0.004
v -0.008314696 0.005555702 0.004
v -0.00636396 -0.00636396 0.004
v -0.00636396 0.00636396 0.004
v -0.005555702 -0.008314696 0.004
v -0.007071068 0.007071068 0.004
v -0.005000132 -0.007483227 0.004
v -0.005000132 0.007483226 0.004
v -0.003826835 -0.009238794 0.004
v -0.005555702 0.008314696 0.004
v -0.003444151 -0.008314915 0.004
v -0.003444151 0.008314915 0.004
v -0.001950903 -0.009807853 0.004
v -0.003826834 0.009238794 0.004
v -0.001755813 -0.008827067 0.004
v -0.001755813 0.008827067 0.004
v 8.742277E-10 -0.01 0.004
v -0.001950903 0.009807852 0.004
v 7.728351E-10 -0.009 0.004
v -1.396984E-11 0.009 0.004
v 0.001950902 -0.009807853 0.004
v 0 0.01 0.004
v 0.001755812 -0.008827067 0.004
v 0.001755812 0.008827067 0.004
v 0.003826834 -0.009238794 0.004
v 0.001950902 0.009807853 0.004
v 0.003444151 -0.008314915 0.004
v 0.003444151 0.008314916 0.004
v 0.005555703 -0.008314695 0.004
v 0.003826834 0.009238795 0.004
v 0.005000132 -0.007483225 0.004
v 0.005000132 0.007483226 0.004
v 0.007071067 -0.007071068 0.004
v 0.005555703 0.008314696 0.004
v 0.00636396 -0.006363961 0.004
v 0.006363961 0.00636396 0.004
v 0.008314694 -0.005555704 0.004
v 0.007071069 0.007071067 0.004
v 0.007483225 -0.005000134 0.004
v 0.007483227 0.00500013 0.004
v 0.009238794 -0.003826836 0.004
v 0.008314697 0.005555701 0.004
v 0.008314915 -0.003444152 0.004
v 0.008314914 0.003444152 0.004
v 0.009807852 -0.001950904 0.004
v 0.009238794 0.003826836 0.004
v 0.008827067 -0.001755813 0.004
v 0.008827067 0.001755814 0.004
v 0.01 1.192488E-10 0.004
v 0.009807852 0.001950904 0.004
v 0.009 8.869747E-11 0.004
v 0.001950902 0.009807853 0
v 0.003826834 0.009238795 0.004
v 0.001950902 0.009807853 0.004
v 0.003826834 0.009238795 0
v 0 0.01 0
v 0.005555703 0.008314696 0.004
v 0 0.01 0.004
v 0.005555703 0.008314696 0
v -0.001950903 0.009807852 0
v 0.007071069 0.007071067 0.004
v -0.001950903 0.009807852 0.004
v 0.007071069 0.007071067 0
v -0.003826834 0.009238794 0
v 0.008314697 0.005555701 0.004
v -0.003826834 0.009238794 0.004
v 0.008314697 0.005555701 0
v -0.005555702 0.008314696 0
v 0.009238794 0.003826836 0.004
v -0.005555702 0.008314696 0.004
v 0.009238794 0.003826836 0
v -0.007071068 0.007071068 0
v 0.009807852 0.001950904 0.004
v -0.007071068 0.007071068 0.004
v 0.009807852 0.001950904 0
v -0.008314696 0.005555702 0
v 0.01 1.192488E-10 0.004
v -0.008314696 0.005555702 0.004
v 0.01 1.192488E-10 0
v -0.009238794 0.003826834 0
v 0.009807852 -0.001950904 0.004
v -0.009238794 0.003826834 0.004
v 0.009807852 -0.001950904 0
v -0.009807852 0.001950903 0
v 0.009238794 -0.003826836 0.004
v -0.009807852 0.001950903 0.004
v 0.009238794 -0.003826836 0
v -0.01 -4.371139E-10 0
v 0.008314694 -0.005555704 0.004
v -0.01 -4.371139E-10 0.004
v 0.008314694 -0.005555704 0
v -0.009807852 -0.001950903 0
v 0.007071067 -0.007071068 0.004
v -0.009807852 -0.001950903 0.004
v 0.007071067 -0.007071068 0
v -0.009238795 -0.003826834 0
v 0.005555703 -0.008314695 0.004
v -0.009238795 -0.003826834 0.004
v 0.005555703 -0.008314695 0
v -0.008314696 -0.005555702 0
v 0.003826834 -0.009238794 0.004
v -0.008314696 -0.005555702 0.004
v 0.003826834 -0.009238794 0
v -0.007071068 -0.007071068 0
v 0.001950902 -0.009807853 0.004
v -0.007071068 -0.007071068 0.004
v 0.001950902 -0.009807853 0
v -0.005555702 -0.008314696 0
v 8.742277E-10 -0.01 0.004
v -0.005555702 -0.008314696 0.004
v 8.742277E-10 -0.01 0
v -0.003826835 -0.009238794 0
v -0.001950903 -0.009807853 0.004
v -0.003826835 -0.009238794 0.004
v -0.001950903 -0.009807853 0
v 0.008827067 0.001755814 0.002
v 0.009 8.869747E-11 0.002
v 0.008827067 -0.001755813 0.002
v 0.008314914 0.003444152 0.002
v 0.008314915 -0.003444152 0.002
v 0.007483225 -0.005000134 0.002
v 0.007483227 0.00500013 0.002
v 0.006363961 0.00636396 0.002
v 0.00636396 -0.006363961 0.002
v 0.005000132 0.007483226 0.002
v 0.005000132 -0.007483225 0.002
v 0.003444151 0.008314916 0.002
v 0.003444151 -0.008314915 0.002
v 0.001755812 0.008827067 0.002
v 0.001755812 -0.008827067 0.002
v 7.728351E-10 -0.009 0.002
v -1.396984E-11 0.009 0.002
v -0.001755813 -0.008827067 0.002
v -0.001755813 0.008827067 0.002
v -0.003444151 -0.008314915 0.002
v -0.003444151 0.008314915 0.002
v -0.005000132 0.007483226 0.002
v -0.005000132 -0.007483227 0.002
v -0.00636396 -0.00636396 0.002
v -0.00636396 0.00636396 0.002
v -0.007483226 0.005000132 0.002
v -0.007483227 -0.005000132 0.002
v -0.008314915 0.003444151 0.002
v -0.008314916 -0.00344415 0.002
v -0.008827067 0.001755813 0.002
v -0.008827067 -0.001755813 0.002
v -0.009 -4.120289E-10 0.002
vt 0 0
vt 0 0
vt 0 0
vt 0 0
vt 0 0
vt 0 0
vt 0 0
vt 0 0
vt 0 0
vt 0 0
vt 0 0
vt 0 0
vt 0 0
vt 0 0
vt 0 0
vt 0 0
vt 0 0
vt 0 0
vt 0 0
vt 0 0
vt 0 0
vt 0 0
vt 0 0
vt 0 0
vt 0 0
vt 0 0
vt 0 0
vt 0 0
vt 0 0
vt 0 0
vt 0 0
vt 0 0
vt 0 0
vt 0 0
vt 0 0
vt 0 0
vt 0 0
vt 0 0
vt 0 0
vt 0 0
vt 0 0
vt 0 0
vt 0 0
vt 0 0
vt 0 0
vt 0 0
vt 0 0
vt 0 0
vt 0 0
vt 0 0
vt 0 0
vt 0 0
vt 0 0
vt 0 0
vt 0 0
vt 0 0
vt 0 0
vt 0 0
vt 0 0
vt 0 0
vt 0 0
vt 0 0
vt 0 0
vt 0 0
vt 0 0
vt 0 0
vt 0 0
vt 0 0
vt 0 0
vt 0 0
vt 0 0
vt 0 0
vt 0 0
vt 0 0
vt 0 0
vt 0 0
vt 0 0
vt 0 0
vt 0 0
vt 0 0
vt 0 0
vt 0 0
vt 0 0
vt 0 0
vt 0 0
vt 0 0
vt 0 0
vt 0 0
vt 0 0
vt 0 0
vt 0 0
vt 0 0
vt 0 0
vt 0 0
vt 0 0
vt 0 0
vt 0 0
vt 0 0
vt 0 0
vt 0 0
vt 0 0
vt 0 0
vt 0 0
vt 0 0
vt 0 0
vt 0 0
vt 0 0
vt 0 0
vt 0 0
vt 0 0
vt 0 0
vt 0 0
vt 0 0
vt 0 0
vt 0 0
vt 0 0
vt 0 0
vt 0 0
vt 0 0
vt 0 0
vt 0 0
vt 0 0
vt 0 0
vt 0 0
vt 0 0
vt 0 0
vt 0 0
vt 0 0
vt 0 0
vt 0 0
vt 0 0
vt 0 0
vt 0 0
vt 0 0
vt 0 0
vt 0 0
vt 0 0
vt 0 0
vt 0 0
vt 0 0
vt 0 0
vt 0 0
vt 0 0
vt 0 0
vt 0 0
vt 0 0
vt 0 0
vt 0 0
vt 0 0
vt 0 0
vt 0 0
vt 0 0
vt 0 0
vt 0 0
vt 0 0
vt 0 0
vt 0 0
vt 0 0
vt 0 0
vt 0 0
vt 0 0
vt 0 0
vt 0 0
vt 0 0
vt 0 0
vt 0 0
vt 0 0
vt 0 0
vt 0 0
vt 0 0
vt 0 0
vt 0 0
vt 0 0
vt 0 0
vt 0 0
vt 0 0
vt 0 0
vt 0 0
vt 0 0
vt 0 0
vt 0 0
vt 0 0
vt 0 0
vt 0 0
vt 0 0
vt 0 0
vt 0 0
vt 0 0
vt 0 0
vt 0 0
vt 0 0
vt 0 0
vt 0 0
vt 0 0
vt 0 0
vt 0 0
vt 0 0
vt 0 0
vt 0 0
vt 0 0
vt 0 0
vt 0 0
vt 0 0
vt 0 0
vt 0 0
vt 0 0
vt 0 0
vt 0 0
vt 0 0
vt 0 0
vt 0 0
vt 0 0
vt 0 0
vt 0 0
vt 0 0
vt 0 0
vt 0 0
vt 0 0
vt 0 0
vt 0 0
vt 0 0
vt 0 0
vt 0 0
vt 0 0
vt 0.9902344 0.5976563
vt 1 0.5
vt 0.9902344 0.4023438
vt 0.9619141 0.6914063
vt 0.9619141 0.3085938
vt 0.9155273 0.222168
vt 0.9155273 0.777832
vt 0.8535156 0.8535156
vt 0.8535156 0.1464844
vt 0.777832 0.9155273
vt 0.777832 0.08428955
vt 0.6914063 0.9619141
vt 0.6914063 0.03805542
vt 0.5976563 0.9902344
vt 0.5976563 0.009605408
vt 0.5 0
vt 0.5 1
vt 0.4023438 0.009605408
vt 0.4023438 0.9902344
vt 0.3085938 0.03805542
vt 0.3085938 0.9619141
vt 0.222168 0.9155273
vt 0.222168 0.08428955
vt 0.1464844 0.1464844
vt 0.1464844 0.8535156
vt 0.08428955 0.777832
vt 0.08428955 0.222168
vt 0.03805542 0.6914063
vt 0.03805542 0.3085938
vt 0.009605408 0.5976563
vt 0.009605408 0.4023438
vt 0 0.5
vn 0 0 -1
vn 0 0 -1
vn 0 0 -1
vn 0 0 -1
vn 0 0 -1
vn 0 0 -1
vn 0 0 -1
vn 0 0 -1
vn 0 0 -1
vn 0 0 -1
vn 0 0 -1
vn 0 0 -1
vn 0 0 -1
vn 0 0 -1
vn 0 0 -1
vn 0 0 -1
vn 0 0 -1
vn 0 0 -1
vn 0 0 -1
vn 0 0 -1
vn 0 0 -1
vn 0 0 -1
vn 0 0 -1
vn 0 0 -1
vn 0 0 -1
vn 0 0 -1
vn 0 0 -1
vn 0 0 -1
vn 0 0 -1
vn 0 0 -1
vn 0 0 -1
vn 0 0 -1
vn 0.7070313 0.7070313 0
vn 0.831543 0.5556641 0
vn 0.831543 0.5556641 0
vn 0.7070313 0.7070313 0
vn 0.9238281 0.3825684 0
vn 0.5556641 0.831543 0
vn 0.9238281 0.3825684 0
vn 0.5556641 0.831543 0
vn 0.980957 0.1950684 0
vn 0.3825684 0.9238281 0
vn 0.980957 0.1950684 0
vn 0.3825684 0.9238281 0
vn 1 0 0
vn 0.1950684 0.980957 0
vn 1 0 0
vn 0.1950684 0.980957 0
vn 0.980957 -0.1950684 0
vn 0 1 0
vn 0.980957 -0.1950684 0
vn 0 1 0
vn 0.9238281 -0.3825684 0
vn -0.1950684 0.980957 0
vn 0.9238281 -0.3825684 0
vn -0.1950684 0.980957 0
vn 0.831543 -0.5556641 0
vn -0.3825684 0.9238281 0
vn 0.831543 -0.5556641 0
vn -0.3825684 0.9238281 0
vn 0.7070313 -0.7070313 0
vn -0.5556641 0.831543 0
vn 0.7070313 -0.7070313 0
vn -0.5556641 0.831543 0
vn 0.5556641 -0.831543 0
vn -0.7070313 0.7070313 0
vn 0.5556641 -0.831543 0
vn -0.7070313 0.7070313 0
vn 0.3825684 -0.9238281 0
vn -0.831543 0.5556641 0
vn 0.3825684 -0.9238281 0
vn -0.831543 0.5556641 0
vn 0.1950684 -0.980957 0
vn -0.9238281 0.3825684 0
vn 0.1950684 -0.980957 0
vn -0.9238281 0.3825684 0
vn 1.192093E-07 -1 0
vn -0.980957 0.1950684 0
vn 1.192093E-07 -1 0
vn -0.980957 0.1950684 0
vn -0.1950684 -0.980957 0
vn -1 0 0
vn -0.1950684 -0.980957 0
vn -1 0 0
vn -0.3825684 -0.9238281 0
vn -0.980957 -0.1950684 0
vn -0.3825684 -0.9238281 0
vn -0.980957 -0.1950684 0
vn -0.5556641 -0.831543 0
vn -0.9238281 -0.3825684 0
vn -0.5556641 -0.831543 0
vn -0.9238281 -0.3825684 0
vn -0.7070313 -0.7070313 0
vn -0.831543 -0.5556641 0
vn -0.7070313 -0.7070313 0
vn -0.831543 -0.5556641 0
vn 0 0 1
vn 0 0 1
vn 0 0 1
vn 0 0 1
vn 0 0 1
vn 0 0 1
vn 0 0 1
vn 0 0 1
vn 1.192093E-07 0 1
vn 0 0 1
vn 1.192093E-07 0 1
vn 0 0 1
vn 1.788139E-07 0 1
vn 0 0 1
vn 1.788139E-07 0 1
vn 0 0 1
vn 0 0 1
vn 0 0 1
vn 0 0 1
vn 0 0 1
vn 1.192093E-07 0 1
vn 0 0 1
vn 1.192093E-07 0 1
vn 0 0 1
vn 1.788139E-07 0 1
vn 0 0 1
vn 1.788139E-07 0 1
vn 0 0 1
vn 0 0 1
vn 0 0 1
vn 0 0 1
vn 0 0 1
vn 0 0 1
vn 0 0 1
vn 0 0 1
vn 0 0 1
vn 1.192093E-07 0 1
vn 1.192093E-07 0 1
vn 1.192093E-07 0 1
vn 1.192093E-07 0 1
vn 1.192093E-07 0 1
vn 1.192093E-07 0 1
vn 1.192093E-07 0 1
vn 1.192093E-07 0 1
vn 0 0 1
vn -1.788139E-07 0 1
vn 0 0 1
vn -1.788139E-07 0 1
vn 0 0 1
vn -1.192093E-07 0 1
vn 0 0 1
vn -1.192093E-07 0 1
vn 1.192093E-07 0 1
vn 0 0 1
vn 1.192093E-07 0 1
vn 0 0 1
vn 2.384186E-07 0 1
vn 0 0 1
vn 2.384186E-07 0 1
vn 0 0 1
vn 0 0 1
vn 0 0 1
vn 0 0 1
vn 0 0 1
vn 0.1950684 0.980957 0
vn 0.3825684 0.9238281 0
vn 0.1950684 0.980957 0
vn 0.3825684 0.9238281 0
vn -1.192093E-07 1 0
vn 0.5556641 0.831543 0
vn -1.192093E-07 1 0
vn 0.5556641 0.831543 0
vn -0.1950684 0.980957 0
vn 0.7070313 0.7070313 0
vn -0.1950684 0.980957 0
vn 0.7070313 0.7070313 0
vn -0.3825684 0.9238281 0
vn 0.831543 0.5556641 0
vn -0.3825684 0.9238281 0
vn 0.831543 0.5556641 0
vn -0.5556641 0.831543 0
vn 0.9238281 0.3825684 0
vn -0.5556641 0.831543 0
vn 0.9238281 0.3825684 0
vn -0.7070313 0.7070313 0
vn 0.980957 0.1950684 0
vn -0.7070313 0.7070313 0
vn 0.980957 0.1950684 0
vn -0.831543 0.5556641 0
vn 1 0 0
vn -0.831543 0.5556641 0
vn 1 0 0
vn -0.9238281 0.3825684 0
vn 0.980957 -0.1950684 0
vn -0.9238281 0.3825684 0
vn 0.980957 -0.1950684 0
vn -0.980957 0.1950684 0
vn 0.9238281 -0.3825684 0
vn -0.980957 0.1950684 0
vn 0.9238281 -0.3825684 0
vn -1 0 0
vn 0.831543 -0.5556641 0
vn -1 0 0
vn 0.831543 -0.5556641 0
vn -0.980957 -0.1950684 0
vn 0.7070313 -0.7070313 0
vn -0.980957 -0.1950684 0
vn 0.7070313 -0.7070313 0
vn -0.9238281 -0.3825684 0
vn 0.5556641 -0.831543 0
vn -0.9238281 -0.3825684 0
vn 0.5556641 -0.831543 0
vn -0.831543 -0.5556641 0
vn 0.3825684 -0.9238281 0
vn -0.831543 -0.5556641 0
vn 0.3825684 -0.9238281 0
vn -0.7070313 -0.7070313 0
vn 0.1950684 -0.980957 0
vn -0.7070313 -0.7070313 0
vn 0.1950684 -0.980957 0
vn -0.5556641 -0.831543 0
vn 0 -1 0
vn -0.5556641 -0.831543 0
vn 0 -1 0
vn -0.3825684 -0.9238281 0
vn -0.1950684 -0.980957 0
vn -0.3825684 -0.9238281 0
vn -0.1950684 -0.980957 0
vn 0 0 1
vn 0 0 1
vn 0 0 1
vn 0 0 1
vn 0 0 1
vn 0 0 1
vn 0 0 1
vn 0 0 1
vn 0 0 1
vn 0 0 1
vn 0 0 1
vn 0 0 1
vn 0 0 1
vn 0 0 1
vn 0 0 1
vn 0 0 1
vn 0 0 1
vn 0 0 1
vn 0 0 1
vn 0 0 1
vn 0 0 1
vn 0 0 1
vn 0 0 1
vn 0 0 1
vn 0 0 1
vn 0 0 1
vn 0 0 1
vn 0 0 1
vn 0 0 1
vn 0 0 1
vn 0 0 1
vn 0 0 1
g Circle_0
f 3/3/3 2/2/2 1/1/1
f 1/1/1 4/4/4 3/3/3
f 4/4/4 5/5/5 3/3/3
f 4/4/4 6/6/6 5/5/5
f 6/6/6 7/7/7 5/5/5
f 6/6/6 8/8/8 7/7/7
f 6/6/6 9/9/9 8/8/8
f 9/9/9 10/10/10 8/8/8
f 9/9/9 11/11/11 10/10/10
f 11/11/11 12/12/12 10/10/10
f 12/12/12 13/13/13 10/10/10
f 12/12/12 14/14/14 13/13/13
f 14/14/14 15/15/15 13/13/13
f 14/14/14 16/16/16 15/15/15
f 16/16/16 17/17/17 15/15/15
f 16/16/16 18/18/18 17/17/17
f 18/18/18 19/19/19 17/17/17
f 18/18/18 20/20/20 19/19/19
f 20/20/20 21/21/21 19/19/19
f 20/20/20 22/22/22 21/21/21
f 20/20/20 23/23/23 22/22/22
f 23/23/23 24/24/24 22/22/22
f 24/24/24 25/25/25 22/22/22
f 24/24/24 26/26/26 25/25/25
f 26/26/26 27/27/27 25/25/25
f 26/26/26 28/28/28 27/27/27
f 26/26/26 29/29/29 28/28/28
f 29/29/29 30/30/30 28/28/28
f 29/29/29 31/31/31 30/30/30
f 31/31/31 32/32/32 30/30/30
f 35/35/35 34/34/34 33/33/33
f 36/36/36 35/35/35 33/33/33
f 35/35/35 37/37/37 34/34/34
f 36/36/36 33/33/33 38/38/38
f 37/37/37 39/39/39 34/34/34
f 40/40/40 36/36/36 38/38/38
f 37/37/37 41/41/41 39/39/39
f 40/40/40 38/38/38 42/42/42
f 41/41/41 43/43/43 39/39/39
f 44/44/44 40/40/40 42/42/42
f 41/41/41 45/45/45 43/43/43
f 44/44/44 42/42/42 46/46/46
f 45/45/45 47/47/47 43/43/43
f 48/48/48 44/44/44 46/46/46
f 45/45/45 49/49/49 47/47/47
f 48/48/48 46/46/46 50/50/50
f 49/49/49 51/51/51 47/47/47
f 52/52/52 48/48/48 50/50/50
f 49/49/49 53/53/53 51/51/51
f 52/52/52 50/50/50 54/54/54
f 53/53/53 55/55/55 51/51/51
f 56/56/56 52/52/52 54/54/54
f 53/53/53 57/57/57 55/55/55
f 56/56/56 54/54/54 58/58/58
f 57/57/57 59/59/59 55/55/55
f 60/60/60 56/56/56 58/58/58
f 57/57/57 61/61/61 59/59/59
f 60/60/60 58/58/58 62/62/62
f 61/61/61 63/63/63 59/59/59
f 64/64/64 60/60/60 62/62/62
f 61/61/61 65/65/65 63/63/63
f 64/64/64 62/62/62 66/66/66
f 65/65/65 67/67/67 63/63/63
f 68/68/68 64/64/64 66/66/66
f 65/65/65 69/69/69 67/67/67
f 68/68/68 66/66/66 70/70/70
f 69/69/69 71/71/71 67/67/67
f 72/72/72 68/68/68 70/70/70
f 69/69/69 73/73/73 71/71/71
f 72/72/72 70/70/70 74/74/74
f 73/73/73 75/75/75 71/71/71
f 76/76/76 72/72/72 74/74/74
f 73/73/73 77/77/77 75/75/75
f 76/76/76 74/74/74 78/78/78
f 77/77/77 79/79/79 75/75/75
f 80/80/80 76/76/76 78/78/78
f 77/77/77 81/81/81 79/79/79
f 80/80/80 78/78/78 82/82/82
f 81/81/81 83/83/83 79/79/79
f 84/84/84 80/80/80 82/82/82
f 81/81/81 85/85/85 83/83/83
f 84/84/84 82/82/82 86/86/86
f 85/85/85 87/87/87 83/83/83
f 88/88/88 84/84/84 86/86/86
f 85/85/85 89/89/89 87/87/87
f 88/88/88 86/86/86 90/90/90
f 89/89/89 91/91/91 87/87/87
f 92/92/92 88/88/88 90/90/90
f 89/89/89 93/93/93 91/91/91
f 92/92/92 90/90/90 94/94/94
f 93/93/93 95/95/95 91/91/91
f 96/96/96 92/92/92 94/94/94
f 96/96/96 94/94/94 95/95/95
f 93/93/93 96/96/96 95/95/95
f 99/99/99 98/98/98 97/97/97
f 100/100/100 99/99/99 97/97/97
f 99/99/99 101/101/101 98/98/98
f 100/100/100 97/97/97 102/102/102
f 101/101/101 103/103/103 98/98/98
f 104/104/104 100/100/100 102/102/102
f 101/101/101 105/105/105 103/103/103
f 104/104/104 102/102/102 106/106/106
f 105/105/105 107/107/107 103/103/103
f 108/108/108 104/104/104 106/106/106
f 105/105/105 109/109/109 107/107/107
f 108/108/108 106/106/106 110/110/110
f 109/109/109 111/111/111 107/107/107
f 112/112/112 108/108/108 110/110/110
f 109/109/109 113/113/113 111/111/111
f 112/112/112 110/110/110 114/114/114
f 113/113/113 115/115/115 111/111/111
f 116/116/116 112/112/112 114/114/114
f 113/113/113 117/117/117 115/115/115
f 116/116/116 114/114/114 118/118/118
f 117/117/117 119/119/119 115/115/115
f 120/120/120 116/116/116 118/118/118
f 117/117/117 121/121/121 119/119/119
f 120/120/120 118/118/118 122/122/122
f 121/121/121 123/123/123 119/119/119
f 124/124/124 120/120/120 122/122/122
f 121/121/121 125/125/125 123/123/123
f 124/124/124 122/122/122 126/126/126
f 125/125/125 127/127/127 123/123/123
f 128/128/128 124/124/124 126/126/126
f 125/125/125 129/129/129 127/127/127
f 128/128/128 126/126/126 130/130/130
f 129/129/129 131/131/131 127/127/127
f 132/132/132 128/128/128 130/130/130
f 129/129/129 133/133/133 131/131/131
f 132/132/132 130/130/130 134/134/134
f 133/133/133 135/135/135 131/131/131
f 136/136/136 132/132/132 134/134/134
f 133/133/133 137/137/137 135/135/135
f 136/136/136 134/134/134 138/138/138
f 137/137/137 139/139/139 135/135/135
f 140/140/140 136/136/136 138/138/138
f 137/137/137 141/141/141 139/139/139
f 140/140/140 138/138/138 142/142/142
f 141/141/141 143/143/143 139/139/139
f 144/144/144 140/140/140 142/142/142
f 141/141/141 145/145/145 143/143/143
f 144/144/144 142/142/142 146/146/146
f 145/145/145 147/147/147 143/143/143
f 148/148/148 144/144/144 146/146/146
f 145/145/145 149/149/149 147/147/147
f 148/148/148 146/146/146 150/150/150
f 149/149/149 151/151/151 147/147/147
f 152/152/152 148/148/148 150/150/150
f 149/149/149 153/153/153 151/151/151
f 152/152/152 150/150/150 154/154/154
f 153/153/153 155/155/155 151/151/151
f 156/156/156 152/152/152 154/154/154
f 153/153/153 157/157/157 155/155/155
f 156/156/156 154/154/154 158/158/158
f 157/157/157 159/159/159 155/155/155
f 160/160/160 156/156/156 158/158/158
f 160/160/160 158/158/158 159/159/159
f 157/157/157 160/160/160 159/159/159
f 163/163/163 162/162/162 161/161/161
f 162/162/162 164/164/164 161/161/161
f 163/163/163 161/161/161 165/165/165
f 162/162/162 166/166/166 164/164/164
f 167/167/167 163/163/163 165/165/165
f 166/166/166 168/168/168 164/164/164
f 167/167/167 165/165/165 169/169/169
f 166/166/166 170/170/170 168/168/168
f 171/171/171 167/167/167 169/169/169
f 170/170/170 172/172/172 168/168/168
f 171/171/171 169/169/169 173/173/173
f 170/170/170 174/174/174 172/172/172
f 175/175/175 171/171/171 173/173/173
f 174/174/174 176/176/176 172/172/172
f 175/175/175 173/173/173 177/177/177
f 174/174/174 178/178/178 176/176/176
f 179/179/179 175/175/175 177/177/177
f 178/178/178 180/180/180 176/176/176
f 179/179/179 177/177/177 181/181/181
f 178/178/178 182/182/182 180/180/180
f 183/183/183 179/179/179 181/181/181
f 182/182/182 184/184/184 180/180/180
f 183/183/183 181/181/181 185/185/185
f 182/182/182 186/186/186 184/184/184
f 187/187/187 183/183/183 185/185/185
f 186/186/186 188/188/188 184/184/184
f 187/187/187 185/185/185 189/189/189
f 186/186/186 190/190/190 188/188/188
f 191/191/191 187/187/187 189/189/189
f 190/190/190 192/192/192 188/188/188
f 191/191/191 189/189/189 193/193/193
f 190/190/190 194/194/194 192/192/192
f 195/195/195 191/191/191 193/193/193
f 194/194/194 196/196/196 192/192/192
f 195/195/195 193/193/193 197/197/197
f 194/194/194 198/198/198 196/196/196
f 199/199/199 195/195/195 197/197/197
f 198/198/198 200/200/200 196/196/196
f 199/199/199 197/197/197 201/201/201
f 198/198/198 202/202/202 200/200/200
f 203/203/203 199/199/199 201/201/201
f 202/202/202 204/204/204 200/200/200
f 203/203/203 201/201/201 205/205/205
f 202/202/202 206/206/206 204/204/204
f 207/207/207 203/203/203 205/205/205
f 206/206/206 208/208/208 204/204/204
f 207/207/207 205/205/205 209/209/209
f 206/206/206 210/210/210 208/208/208
f 211/211/211 207/207/207 209/209/209
f 210/210/210 212/212/212 208/208/208
f 211/211/211 209/209/209 213/213/213
f 210/210/210 214/214/214 212/212/212
f 215/215/215 211/211/211 213/213/213
f 214/214/214 216/216/216 212/212/212
f 215/215/215 213/213/213 217/217/217
f 214/214/214 218/218/218 216/216/216
f 219/219/219 215/215/215 217/217/217
f 218/218/218 220/220/220 216/216/216
f 219/219/219 217/217/217 221/221/221
f 218/218/218 222/222/222 220/220/220
f 223/223/223 219/219/219 221/221/221
f 222/222/222 224/224/224 220/220/220
f 223/223/223 221/221/221 224/224/224
f 222/222/222 223/223/223 224/224/224
g Circle_1
f 227/227/227 226/226/226 225/225/225
f 225/225/225 228/228/228 227/227/227
f 228/228/228 229/229/229 227/227/227
f 228/228/228 230/230/230 229/229/229
f 228/228/228 231/231/231 230/230/230
f 231/231/231 232/232/232 230/230/230
f 232/232/232 233/233/233 230/230/230
f 232/232/232 234/234/234 233/233/233
f 234/234/234 235/235/235 233/233/233
f 234/234/234 236/236/236 235/235/235
f 236/236/236 237/237/237 235/235/235
f 236/236/236 238/238/238 237/237/237
f 238/238/238 239/239/239 237/237/237
f 238/238/238 240/240/240 239/239/239
f 238/238/238 241/241/241 240/240/240
f 241/241/241 242/242/242 240/240/240
f 241/241/241 243/243/243 242/242/242
f 243/243/243 244/244/244 242/242/242
f 243/243/243 245/245/245 244/244/244
f 245/245/245 246/246/246 244/244/244
f 246/246/246 247/247/247 244/244/244
f 246/246/246 248/248/248 247/247/247
f 246/246/246 249/249/249 248/248/248
f 249/249/249 250/250/250 248/248/248
f 250/250/250 251/251/251 248/248/248
f 250/250/250 252/252/252 251/251/251
f 252/252/252 253/253/253 251/251/251
f 252/252/252 254/254/254 253/253/253
f 254/254/254 255/255/255 253/253/253
f 254/254/254 256/256/256 255/255/255
g Circle_2
f 156/156/156 160/160/160 157/157/157
f 157/157/157 153/153/153 156/156/156
f 153/153/153 152/152/152 156/156/156
f 153/153/153 148/148/148 152/152/152
f 153/153/153 149/149/149 148/148/148
f 149/149/149 145/145/145 148/148/148
f 145/145/145 144/144/144 148/148/148
f 145/145/145 141/141/141 144/144/144
f 141/141/141 140/140/140 144/144/144
f 141/141/141 137/137/137 140/140/140
f 137/137/137 136/136/136 140/140/140
f 137/137/137 133/133/133 136/136/136
f 133/133/133 132/132/132 136/136/136
f 133/133/133 128/128/128 132/132/132
f 133/133/133 129/129/129 128/128/128
f 129/129/129 124/124/124 128/128/128
f 129/129/129 125/125/125 124/124/124
f 125/125/125 120/120/120 124/124/124
f 125/125/125 121/121/121 120/120/120
f 121/121/121 117/117/117 120/120/120
f 117/117/117 116/116/116 120/120/120
f 117/117/117 112/112/112 116/116/116
f 117/117/117 113/113/113 112/112/112
f 113/113/113 109/109/109 112/112/112
f 109/109/109 108/108/108 112/112/112
f 109/109/109 105/105/105 108/108/108
f 105/105/105 104/104/104 108/108/108
f 105/105/105 101/101/101 104/104/104
f 101/101/101 100/100/100 104/104/104
f 101/101/101 99/99/99 100/100/100
